<svg xmlns="http://www.w3.org/2000/svg" xmlns:xlink="http://www.w3.org/1999/xlink" width="225" zoomAndPan="magnify" viewBox="0 0 168.75 22.5" height="30" preserveAspectRatio="xMidYMid meet" version="1.0"><defs><g/><clipPath id="c630e94937"><path d="M 1.710938 0 L 44.328125 0 L 44.328125 21.308594 L 1.710938 21.308594 Z M 1.710938 0 " clip-rule="nonzero"/></clipPath></defs><g clip-path="url(#c630e94937)"><path fill="#ffffff" d="M 44.128906 20.953125 L 25.304688 20.953125 L 43.898438 18.027344 C 44.015625 18.011719 44.066406 17.941406 44.046875 17.820312 C 44.03125 17.703125 43.960938 17.652344 43.839844 17.671875 L 25.246094 20.59375 L 43.152344 14.820312 C 43.257812 14.78125 43.296875 14.707031 43.261719 14.597656 C 43.222656 14.488281 43.152344 14.449219 43.039062 14.480469 L 25.136719 20.261719 L 41.910156 11.777344 C 42.027344 11.726562 42.054688 11.644531 41.996094 11.53125 C 41.941406 11.421875 41.855469 11.394531 41.746094 11.460938 L 24.972656 19.941406 L 40.203125 8.960938 C 40.300781 8.890625 40.3125 8.804688 40.242188 8.710938 C 40.171875 8.613281 40.089844 8.601562 39.992188 8.671875 L 24.761719 19.652344 L 38.074219 6.441406 C 38.144531 6.355469 38.144531 6.277344 38.0625 6.199219 C 37.984375 6.121094 37.90625 6.117188 37.820312 6.1875 L 24.507812 19.402344 L 35.574219 4.285156 C 35.644531 4.1875 35.632812 4.105469 35.535156 4.035156 C 35.4375 3.964844 35.351562 3.980469 35.28125 4.074219 L 24.21875 19.191406 L 32.765625 2.542969 C 32.828125 2.433594 32.804688 2.351562 32.691406 2.292969 C 32.578125 2.238281 32.496094 2.265625 32.445312 2.382812 L 23.898438 19.03125 L 29.714844 1.257812 C 29.757812 1.144531 29.71875 1.066406 29.601562 1.027344 C 29.484375 0.988281 29.40625 1.03125 29.375 1.148438 L 23.558594 18.921875 L 26.503906 0.464844 C 26.523438 0.347656 26.472656 0.28125 26.355469 0.261719 C 26.238281 0.242188 26.167969 0.292969 26.148438 0.410156 L 23.199219 18.863281 L 23.199219 0.179688 C 23.199219 0.0585938 23.140625 0 23.019531 0 C 22.902344 0 22.839844 0.0585938 22.839844 0.179688 L 22.839844 18.863281 L 19.894531 0.410156 C 19.875 0.289062 19.808594 0.242188 19.6875 0.257812 C 19.566406 0.277344 19.515625 0.347656 19.535156 0.464844 L 22.480469 18.921875 L 16.667969 1.148438 C 16.628906 1.039062 16.554688 1.003906 16.445312 1.039062 C 16.335938 1.074219 16.296875 1.148438 16.328125 1.257812 L 22.144531 19.03125 L 13.597656 2.382812 C 13.546875 2.265625 13.464844 2.238281 13.351562 2.292969 C 13.238281 2.351562 13.214844 2.433594 13.277344 2.542969 L 21.824219 19.191406 L 10.757812 4.074219 C 10.6875 3.980469 10.605469 3.964844 10.507812 4.035156 C 10.410156 4.105469 10.398438 4.1875 10.46875 4.285156 L 21.53125 19.402344 L 8.222656 6.1875 C 8.136719 6.117188 8.054688 6.121094 7.976562 6.199219 C 7.898438 6.277344 7.894531 6.355469 7.96875 6.441406 L 21.28125 19.652344 L 6.050781 8.671875 C 5.953125 8.601562 5.867188 8.613281 5.796875 8.710938 C 5.726562 8.804688 5.742188 8.890625 5.839844 8.960938 L 21.066406 19.941406 L 4.292969 11.460938 C 4.183594 11.394531 4.101562 11.421875 4.042969 11.53125 C 3.984375 11.644531 4.015625 11.726562 4.132812 11.777344 L 20.90625 20.261719 L 3 14.488281 C 2.882812 14.445312 2.804688 14.480469 2.765625 14.597656 C 2.730469 14.714844 2.769531 14.792969 2.890625 14.824219 L 20.792969 20.601562 L 2.199219 17.675781 C 2.082031 17.65625 2.011719 17.707031 1.992188 17.828125 C 1.972656 17.945312 2.023438 18.015625 2.144531 18.03125 L 20.738281 20.957031 L 1.910156 20.957031 C 1.792969 20.957031 1.730469 21.015625 1.730469 21.136719 C 1.730469 21.253906 1.792969 21.3125 1.910156 21.3125 L 44.128906 21.3125 C 44.25 21.3125 44.308594 21.253906 44.308594 21.136719 C 44.308594 21.015625 44.25 20.957031 44.128906 20.957031 Z M 44.128906 20.953125 " fill-opacity="1" fill-rule="nonzero"/></g><g fill="#ffffff" fill-opacity="1"><g transform="translate(51.897672, 14.483393)"><g><path d="M 6.914062 0 L 4.464844 -7.09375 L 2.761719 -7.09375 L 0.25 0 L 1.8125 0 L 2.292969 -1.476562 L 4.863281 -1.476562 L 5.339844 0 Z M 2.980469 -3.566406 L 3.585938 -5.609375 L 4.183594 -3.566406 L 4.472656 -2.691406 L 2.691406 -2.691406 Z M 2.980469 -3.566406 "/></g></g></g><g fill="#ffffff" fill-opacity="1"><g transform="translate(59.054637, 14.483393)"><g><path d="M 2.003906 0 L 2.003906 -7.09375 L 0.597656 -7.09375 L 0.597656 0 Z M 2.003906 0 "/></g></g></g><g fill="#ffffff" fill-opacity="1"><g transform="translate(61.652645, 14.483393)"><g><path d="M 4.023438 -4.503906 C 3.6875 -5.011719 3.179688 -5.269531 2.519531 -5.269531 C 1.253906 -5.269531 0.320312 -4.304688 0.320312 -2.671875 C 0.320312 -1.074219 1.234375 0 2.519531 0 C 3.097656 0 3.566406 -0.210938 3.914062 -0.628906 L 3.914062 0.078125 C 3.914062 0.726562 3.65625 1.105469 2.839844 1.105469 C 2.230469 1.105469 1.882812 0.898438 1.804688 0.417969 L 0.507812 0.417969 C 0.609375 1.496094 1.394531 2.152344 2.871094 2.152344 C 4.414062 2.152344 5.320312 1.414062 5.320312 0.0585938 L 5.320312 -5.140625 L 4.074219 -5.140625 Z M 2.828125 -1.195312 C 2.152344 -1.195312 1.675781 -1.753906 1.675781 -2.671875 C 1.675781 -3.578125 2.152344 -4.144531 2.828125 -4.144531 C 3.507812 -4.144531 3.984375 -3.566406 3.984375 -2.671875 C 3.984375 -1.773438 3.507812 -1.195312 2.828125 -1.195312 Z M 2.828125 -1.195312 "/></g></g></g><g fill="#ffffff" fill-opacity="1"><g transform="translate(67.565359, 14.483393)"><g><path d="M 2.949219 0.167969 C 4.492188 0.167969 5.578125 -0.996094 5.578125 -2.550781 C 5.578125 -4.105469 4.492188 -5.269531 2.949219 -5.269531 C 1.40625 -5.269531 0.320312 -4.105469 0.320312 -2.550781 C 0.320312 -0.996094 1.40625 0.167969 2.949219 0.167969 Z M 2.949219 -0.925781 C 2.164062 -0.925781 1.675781 -1.5625 1.675781 -2.550781 C 1.675781 -3.535156 2.164062 -4.175781 2.949219 -4.175781 C 3.738281 -4.175781 4.222656 -3.535156 4.222656 -2.550781 C 4.222656 -1.5625 3.738281 -0.925781 2.949219 -0.925781 Z M 2.949219 -0.925781 "/></g></g></g><g fill="#ffffff" fill-opacity="1"><g transform="translate(73.458161, 14.483393)"><g><path d="M 3.167969 -5.28125 C 2.601562 -5.28125 2.183594 -4.980469 1.953125 -4.433594 L 1.972656 -5.140625 L 0.597656 -5.140625 L 0.597656 0 L 2.003906 0 L 2.003906 -2.5 C 2.003906 -3.496094 2.421875 -3.984375 3.277344 -3.984375 C 3.378906 -3.984375 3.46875 -3.976562 3.566406 -3.964844 L 3.566406 -5.242188 C 3.425781 -5.269531 3.289062 -5.28125 3.167969 -5.28125 Z M 3.167969 -5.28125 "/></g></g></g><g fill="#ffffff" fill-opacity="1"><g transform="translate(77.220793, 14.483393)"><g><path d="M 2.011719 -5.820312 L 2.011719 -7.09375 L 0.609375 -7.09375 L 0.609375 -5.820312 Z M 2.003906 0 L 2.003906 -5.140625 L 0.597656 -5.140625 L 0.597656 0 Z M 2.003906 0 "/></g></g></g><g fill="#ffffff" fill-opacity="1"><g transform="translate(79.818802, 14.483393)"><g><path d="M 3.207031 -4.105469 L 3.207031 -5.140625 L 2.25 -5.113281 L 2.25 -6.726562 L 0.847656 -6.726562 L 0.847656 -5.121094 L 0.148438 -5.140625 L 0.148438 -4.105469 L 0.847656 -4.136719 L 0.847656 -1.445312 C 0.847656 -0.410156 1.253906 0 2.292969 0 L 3.207031 0 L 3.207031 -1.125 L 2.738281 -1.125 C 2.390625 -1.125 2.25 -1.265625 2.25 -1.613281 L 2.25 -4.136719 Z M 3.207031 -4.105469 "/></g></g></g><g fill="#ffffff" fill-opacity="1"><g transform="translate(83.223091, 14.483393)"><g><path d="M 3.476562 -5.269531 C 2.820312 -5.269531 2.339844 -5 2.003906 -4.453125 L 2.003906 -7.09375 L 0.597656 -7.09375 L 0.597656 0 L 2.003906 0 L 2.003906 -2.75 C 2.003906 -3.515625 2.410156 -4.003906 3.007812 -4.003906 C 3.507812 -4.003906 3.757812 -3.667969 3.757812 -3.128906 L 3.757812 0 L 5.160156 0 L 5.160156 -3.449219 C 5.160156 -4.5625 4.542969 -5.269531 3.476562 -5.269531 Z M 3.476562 -5.269531 "/></g></g></g><g fill="#ffffff" fill-opacity="1"><g transform="translate(88.97654, 14.483393)"><g><path d="M 6.375 -5.269531 C 5.679688 -5.269531 5.191406 -4.972656 4.863281 -4.34375 C 4.632812 -4.921875 4.125 -5.269531 3.386719 -5.269531 C 2.769531 -5.269531 2.3125 -5.011719 1.992188 -4.484375 L 1.972656 -5.140625 L 0.597656 -5.140625 L 0.597656 0 L 2.003906 0 L 2.003906 -2.75 C 2.003906 -3.515625 2.371094 -4.003906 2.917969 -4.003906 C 3.40625 -4.003906 3.605469 -3.617188 3.605469 -3.160156 L 3.605469 0 L 5.011719 0 L 5.011719 -2.75 C 5.011719 -3.515625 5.378906 -4.003906 5.929688 -4.003906 C 6.417969 -4.003906 6.617188 -3.617188 6.617188 -3.160156 L 6.617188 0 L 8.019531 0 L 8.019531 -3.4375 C 8.019531 -4.511719 7.441406 -5.269531 6.375 -5.269531 Z M 6.375 -5.269531 "/></g></g></g><g fill="#ffffff" fill-opacity="1"><g transform="translate(97.586802, 14.483393)"><g><path d="M 2.75 0.1875 C 4.136719 0.1875 5.03125 -0.4375 5.03125 -1.523438 C 5.03125 -2.320312 4.554688 -2.789062 3.527344 -3 L 2.421875 -3.226562 C 2.050781 -3.308594 1.84375 -3.476562 1.84375 -3.746094 C 1.84375 -4.074219 2.140625 -4.292969 2.609375 -4.292969 C 3.136719 -4.292969 3.515625 -4.023438 3.585938 -3.578125 L 4.851562 -3.625 C 4.722656 -4.632812 3.875 -5.269531 2.628906 -5.269531 C 1.363281 -5.269531 0.539062 -4.613281 0.539062 -3.578125 C 0.539062 -2.789062 1.027344 -2.273438 2.03125 -2.074219 L 3.050781 -1.875 C 3.515625 -1.785156 3.726562 -1.632812 3.726562 -1.355469 C 3.726562 -0.964844 3.328125 -0.789062 2.800781 -0.789062 C 2.132812 -0.789062 1.785156 -1.074219 1.703125 -1.585938 L 0.417969 -1.535156 C 0.546875 -0.4375 1.34375 0.1875 2.75 0.1875 Z M 2.75 0.1875 "/></g></g></g><g fill="#ffffff" fill-opacity="1"><g transform="translate(102.961995, 14.483393)"><g/></g></g><g fill="#ffffff" fill-opacity="1"><g transform="translate(105.450508, 14.483393)"><g><path d="M 6.996094 -3.546875 L 6.65625 -2.121094 L 6.367188 -3.546875 L 5.589844 -7.09375 L 4.136719 -7.09375 L 3.359375 -3.546875 L 3.070312 -2.121094 L 2.730469 -3.546875 L 1.8125 -7.09375 L 0.25 -7.09375 L 2.320312 0 L 3.757812 0 L 4.542969 -3.507812 L 4.851562 -4.910156 L 5.152344 -3.507812 L 5.9375 0 L 7.351562 0 L 9.425781 -7.09375 L 7.910156 -7.09375 Z M 6.996094 -3.546875 "/></g></g></g><g fill="#ffffff" fill-opacity="1"><g transform="translate(115.115898, 14.483393)"><g><path d="M 2.949219 0.167969 C 4.492188 0.167969 5.578125 -0.996094 5.578125 -2.550781 C 5.578125 -4.105469 4.492188 -5.269531 2.949219 -5.269531 C 1.40625 -5.269531 0.320312 -4.105469 0.320312 -2.550781 C 0.320312 -0.996094 1.40625 0.167969 2.949219 0.167969 Z M 2.949219 -0.925781 C 2.164062 -0.925781 1.675781 -1.5625 1.675781 -2.550781 C 1.675781 -3.535156 2.164062 -4.175781 2.949219 -4.175781 C 3.738281 -4.175781 4.222656 -3.535156 4.222656 -2.550781 C 4.222656 -1.5625 3.738281 -0.925781 2.949219 -0.925781 Z M 2.949219 -0.925781 "/></g></g></g><g fill="#ffffff" fill-opacity="1"><g transform="translate(121.0087, 14.483393)"><g><path d="M 3.167969 -5.28125 C 2.601562 -5.28125 2.183594 -4.980469 1.953125 -4.433594 L 1.972656 -5.140625 L 0.597656 -5.140625 L 0.597656 0 L 2.003906 0 L 2.003906 -2.5 C 2.003906 -3.496094 2.421875 -3.984375 3.277344 -3.984375 C 3.378906 -3.984375 3.46875 -3.976562 3.566406 -3.964844 L 3.566406 -5.242188 C 3.425781 -5.269531 3.289062 -5.28125 3.167969 -5.28125 Z M 3.167969 -5.28125 "/></g></g></g><g fill="#ffffff" fill-opacity="1"><g transform="translate(124.771333, 14.483393)"><g><path d="M 5.511719 -5.140625 L 3.746094 -5.140625 L 2.601562 -3.867188 L 1.960938 -3.070312 L 2.003906 -4.253906 L 2.003906 -7.09375 L 0.597656 -7.09375 L 0.597656 0 L 2.003906 0 L 2.003906 -1.703125 L 2.539062 -2.261719 L 2.898438 -1.605469 L 3.886719 0 L 5.550781 0 L 3.507812 -3.117188 Z M 5.511719 -5.140625 "/></g></g></g><g fill="#ffffff" fill-opacity="1"><g transform="translate(130.465056, 14.483393)"><g><path d="M 2.75 0.1875 C 4.136719 0.1875 5.03125 -0.4375 5.03125 -1.523438 C 5.03125 -2.320312 4.554688 -2.789062 3.527344 -3 L 2.421875 -3.226562 C 2.050781 -3.308594 1.84375 -3.476562 1.84375 -3.746094 C 1.84375 -4.074219 2.140625 -4.292969 2.609375 -4.292969 C 3.136719 -4.292969 3.515625 -4.023438 3.585938 -3.578125 L 4.851562 -3.625 C 4.722656 -4.632812 3.875 -5.269531 2.628906 -5.269531 C 1.363281 -5.269531 0.539062 -4.613281 0.539062 -3.578125 C 0.539062 -2.789062 1.027344 -2.273438 2.03125 -2.074219 L 3.050781 -1.875 C 3.515625 -1.785156 3.726562 -1.632812 3.726562 -1.355469 C 3.726562 -0.964844 3.328125 -0.789062 2.800781 -0.789062 C 2.132812 -0.789062 1.785156 -1.074219 1.703125 -1.585938 L 0.417969 -1.535156 C 0.546875 -0.4375 1.34375 0.1875 2.75 0.1875 Z M 2.75 0.1875 "/></g></g></g><g fill="#ffffff" fill-opacity="1"><g transform="translate(135.84025, 14.483393)"><g><path d="M 3.476562 -5.269531 C 2.820312 -5.269531 2.339844 -5 2.003906 -4.453125 L 2.003906 -7.09375 L 0.597656 -7.09375 L 0.597656 0 L 2.003906 0 L 2.003906 -2.75 C 2.003906 -3.515625 2.410156 -4.003906 3.007812 -4.003906 C 3.507812 -4.003906 3.757812 -3.667969 3.757812 -3.128906 L 3.757812 0 L 5.160156 0 L 5.160156 -3.449219 C 5.160156 -4.5625 4.542969 -5.269531 3.476562 -5.269531 Z M 3.476562 -5.269531 "/></g></g></g><g fill="#ffffff" fill-opacity="1"><g transform="translate(141.593699, 14.483393)"><g><path d="M 2.949219 0.167969 C 4.492188 0.167969 5.578125 -0.996094 5.578125 -2.550781 C 5.578125 -4.105469 4.492188 -5.269531 2.949219 -5.269531 C 1.40625 -5.269531 0.320312 -4.105469 0.320312 -2.550781 C 0.320312 -0.996094 1.40625 0.167969 2.949219 0.167969 Z M 2.949219 -0.925781 C 2.164062 -0.925781 1.675781 -1.5625 1.675781 -2.550781 C 1.675781 -3.535156 2.164062 -4.175781 2.949219 -4.175781 C 3.738281 -4.175781 4.222656 -3.535156 4.222656 -2.550781 C 4.222656 -1.5625 3.738281 -0.925781 2.949219 -0.925781 Z M 2.949219 -0.925781 "/></g></g></g><g fill="#ffffff" fill-opacity="1"><g transform="translate(147.486501, 14.483393)"><g><path d="M 3.496094 -5.269531 C 2.769531 -5.269531 2.242188 -5 1.894531 -4.472656 L 1.84375 -5.140625 L 0.597656 -5.140625 L 0.597656 2.03125 L 2.003906 2.03125 L 2.003906 -0.476562 C 2.339844 -0.0507812 2.820312 0.167969 3.386719 0.167969 C 4.683594 0.167969 5.597656 -0.9375 5.597656 -2.589844 C 5.597656 -4.273438 4.664062 -5.269531 3.496094 -5.269531 Z M 3.089844 -1.066406 C 2.410156 -1.066406 1.933594 -1.664062 1.933594 -2.589844 C 1.933594 -3.515625 2.410156 -4.105469 3.089844 -4.105469 C 3.765625 -4.105469 4.246094 -3.527344 4.246094 -2.589844 C 4.246094 -1.644531 3.765625 -1.066406 3.089844 -1.066406 Z M 3.089844 -1.066406 "/></g></g></g></svg>