<svg xmlns="http://www.w3.org/2000/svg" xmlns:xlink="http://www.w3.org/1999/xlink" width="250" zoomAndPan="magnify" viewBox="0 0 187.5 94.499997" height="126" preserveAspectRatio="xMidYMid meet" version="1.0"><defs><clipPath id="c4302d2a9f"><path d="M 0.246094 0 L 186.757812 0 L 186.757812 94.003906 L 0.246094 94.003906 Z M 0.246094 0 " clip-rule="nonzero"/></clipPath></defs><g clip-path="url(#c4302d2a9f)"><path fill="#ffffff" d="M 186.386719 92.675781 L 103.765625 92.675781 L 185.363281 79.746094 C 185.582031 79.710938 185.753906 79.605469 185.886719 79.425781 C 186.015625 79.246094 186.0625 79.050781 186.027344 78.832031 C 185.996094 78.613281 185.886719 78.441406 185.710938 78.308594 C 185.53125 78.179688 185.332031 78.132812 185.117188 78.167969 L 103.519531 91.097656 L 182.09375 65.554688 C 182.292969 65.480469 182.4375 65.351562 182.53125 65.160156 C 182.621094 64.96875 182.636719 64.773438 182.570312 64.570312 C 182.503906 64.367188 182.378906 64.21875 182.191406 64.117188 C 182.003906 64.019531 181.808594 64 181.605469 64.058594 L 103.035156 89.617188 L 176.644531 52.089844 C 176.851562 52 176.992188 51.847656 177.070312 51.636719 C 177.144531 51.421875 177.132812 51.214844 177.03125 51.011719 C 176.925781 50.808594 176.769531 50.675781 176.550781 50.613281 C 176.332031 50.550781 176.128906 50.574219 175.929688 50.6875 L 102.320312 88.210938 L 169.15625 39.628906 C 169.332031 39.503906 169.4375 39.332031 169.472656 39.113281 C 169.507812 38.898438 169.460938 38.703125 169.332031 38.527344 C 169.203125 38.347656 169.03125 38.246094 168.816406 38.210938 C 168.601562 38.175781 168.40625 38.222656 168.230469 38.351562 L 101.390625 86.933594 L 159.808594 28.488281 C 159.941406 28.332031 160.003906 28.152344 159.996094 27.945312 C 159.988281 27.738281 159.914062 27.5625 159.765625 27.417969 C 159.621094 27.273438 159.445312 27.195312 159.242188 27.1875 C 159.035156 27.179688 158.855469 27.242188 158.695312 27.375 L 100.277344 85.820312 L 148.839844 18.953125 C 148.96875 18.777344 149.015625 18.582031 148.980469 18.363281 C 148.945312 18.148438 148.839844 17.976562 148.664062 17.847656 C 148.488281 17.722656 148.292969 17.675781 148.074219 17.707031 C 147.859375 17.742188 147.6875 17.847656 147.5625 18.027344 L 99 84.890625 L 136.507812 11.246094 C 136.621094 11.050781 136.648438 10.84375 136.582031 10.628906 C 136.519531 10.410156 136.386719 10.25 136.183594 10.148438 C 135.980469 10.046875 135.773438 10.03125 135.5625 10.109375 C 135.347656 10.183594 135.195312 10.324219 135.105469 10.535156 L 97.597656 84.175781 L 123.125 5.570312 C 123.203125 5.359375 123.191406 5.152344 123.09375 4.953125 C 122.996094 4.75 122.84375 4.617188 122.628906 4.546875 C 122.417969 4.476562 122.210938 4.496094 122.015625 4.597656 C 121.816406 4.703125 121.6875 4.863281 121.628906 5.078125 L 96.113281 83.6875 L 109.039062 2.054688 C 109.074219 1.839844 109.027344 1.644531 108.898438 1.46875 C 108.769531 1.292969 108.601562 1.191406 108.386719 1.15625 C 108.171875 1.121094 107.976562 1.167969 107.800781 1.292969 C 107.625 1.421875 107.519531 1.59375 107.484375 1.804688 L 94.539062 83.445312 L 94.539062 0.789062 C 94.539062 0.570312 94.460938 0.386719 94.308594 0.230469 C 94.152344 0.078125 93.96875 0 93.75 0 C 93.53125 0 93.347656 0.078125 93.191406 0.230469 C 93.039062 0.386719 92.960938 0.570312 92.960938 0.789062 L 92.960938 83.445312 L 80.035156 1.808594 C 80 1.59375 79.894531 1.417969 79.71875 1.289062 C 79.539062 1.160156 79.339844 1.109375 79.125 1.144531 C 78.90625 1.179688 78.730469 1.285156 78.601562 1.464844 C 78.472656 1.644531 78.425781 1.839844 78.460938 2.058594 L 91.386719 83.691406 L 65.871094 5.078125 C 65.800781 4.878906 65.667969 4.734375 65.476562 4.640625 C 65.285156 4.550781 65.089844 4.535156 64.886719 4.601562 C 64.6875 4.667969 64.535156 4.792969 64.4375 4.980469 C 64.335938 5.167969 64.316406 5.363281 64.375 5.570312 L 89.902344 84.175781 L 52.394531 10.535156 C 52.304688 10.324219 52.152344 10.183594 51.9375 10.109375 C 51.726562 10.03125 51.519531 10.046875 51.316406 10.148438 C 51.113281 10.25 50.980469 10.410156 50.917969 10.628906 C 50.851562 10.84375 50.878906 11.050781 50.992188 11.246094 L 88.5 84.890625 L 39.9375 18.027344 C 39.8125 17.847656 39.640625 17.742188 39.425781 17.710938 C 39.207031 17.675781 39.011719 17.722656 38.835938 17.851562 C 38.660156 17.976562 38.554688 18.148438 38.519531 18.367188 C 38.484375 18.582031 38.53125 18.777344 38.660156 18.953125 L 87.222656 85.820312 L 28.804688 27.375 C 28.644531 27.242188 28.464844 27.179688 28.257812 27.1875 C 28.054688 27.195312 27.878906 27.273438 27.734375 27.417969 C 27.585938 27.5625 27.511719 27.738281 27.503906 27.945312 C 27.496094 28.152344 27.558594 28.332031 27.691406 28.488281 L 86.109375 86.933594 L 19.269531 38.351562 C 19.09375 38.222656 18.898438 38.175781 18.683594 38.210938 C 18.46875 38.246094 18.296875 38.351562 18.167969 38.527344 C 18.039062 38.703125 17.992188 38.898438 18.027344 39.113281 C 18.0625 39.332031 18.167969 39.503906 18.34375 39.628906 L 85.179688 88.210938 L 11.570312 50.6875 C 11.371094 50.574219 11.167969 50.550781 10.949219 50.613281 C 10.730469 50.675781 10.574219 50.808594 10.46875 51.011719 C 10.367188 51.214844 10.355469 51.421875 10.429688 51.636719 C 10.507812 51.847656 10.648438 52 10.855469 52.089844 L 84.464844 89.617188 L 5.890625 64.078125 C 5.683594 64 5.476562 64.007812 5.277344 64.105469 C 5.074219 64.203125 4.941406 64.359375 4.871094 64.570312 C 4.800781 64.785156 4.820312 64.988281 4.921875 65.1875 C 5.027344 65.382812 5.1875 65.515625 5.402344 65.574219 L 83.976562 91.117188 L 2.378906 78.1875 C 2.164062 78.152344 1.964844 78.199219 1.785156 78.328125 C 1.609375 78.460938 1.5 78.632812 1.46875 78.851562 C 1.433594 79.070312 1.480469 79.265625 1.609375 79.445312 C 1.742188 79.625 1.914062 79.730469 2.132812 79.765625 L 83.730469 92.695312 L 1.113281 92.695312 C 0.898438 92.695312 0.710938 92.773438 0.558594 92.925781 C 0.402344 93.082031 0.328125 93.265625 0.328125 93.484375 C 0.328125 93.703125 0.402344 93.886719 0.558594 94.042969 C 0.710938 94.195312 0.898438 94.273438 1.113281 94.273438 L 186.386719 94.273438 C 186.601562 94.273438 186.789062 94.195312 186.941406 94.042969 C 187.097656 93.886719 187.171875 93.703125 187.171875 93.484375 C 187.171875 93.265625 187.097656 93.082031 186.941406 92.925781 C 186.789062 92.773438 186.601562 92.695312 186.386719 92.695312 Z M 186.386719 92.675781 " fill-opacity="1" fill-rule="nonzero"/></g></svg>